<svg width="17" height="17" viewBox="0 0 17 17" fill="none" xmlns="http://www.w3.org/2000/svg">
<path d="M2.21286 12.1303C1.2823 10.5604 0.956803 8.70468 1.29747 6.91171C1.63814 5.11874 2.62155 3.51176 4.06308 2.39247C5.5046 1.27318 7.30512 0.718554 9.12659 0.832706C10.9481 0.946858 12.6652 1.72194 13.9558 3.01245C15.2463 4.30295 16.0213 6.02013 16.1355 7.84161C16.2496 9.66309 15.695 11.4636 14.5757 12.9051C13.4564 14.3467 11.8495 15.3301 10.0565 15.6707C8.26352 16.0114 6.40785 15.6859 4.83786 14.7553V14.7553L2.24411 15.4897C2.13784 15.5208 2.02517 15.5227 1.9179 15.4953C1.81064 15.4678 1.71273 15.4121 1.63444 15.3338C1.55615 15.2555 1.50036 15.1576 1.47292 15.0503C1.44548 14.943 1.4474 14.8304 1.47848 14.7241L2.21286 12.1303Z" stroke="#475569" stroke-linecap="round" stroke-linejoin="round"/>
</svg>
