<svg width="22" height="23" viewBox="0 0 22 23" fill="none" xmlns="http://www.w3.org/2000/svg">
<path d="M15.899 1.30222H18.569C19.1349 1.29221 19.6849 1.49035 20.1144 1.85903C20.5439 2.22772 20.8231 2.74127 20.899 3.30222V10.3022C20.8231 10.8632 20.5439 11.3767 20.1144 11.7454C19.6849 12.1141 19.1349 12.3122 18.569 12.3022H15.899M8.89896 14.3022V18.3022C8.89896 19.0979 9.21503 19.8609 9.77764 20.4235C10.3402 20.9861 11.1033 21.3022 11.899 21.3022L15.899 12.3022V1.30222H4.61896C4.13663 1.29676 3.66858 1.46581 3.30105 1.77821C2.93352 2.09061 2.69128 2.52531 2.61896 3.00222L1.23896 12.0022C1.19545 12.2889 1.21478 12.5815 1.29562 12.86C1.37645 13.1384 1.51685 13.3959 1.7071 13.6147C1.89734 13.8335 2.13288 14.0083 2.39738 14.127C2.66189 14.2457 2.94905 14.3055 3.23896 14.3022H8.89896Z" stroke="#475569" stroke-width="1.5" stroke-linecap="round" stroke-linejoin="round"/>
</svg>
