<svg width="18" height="16" viewBox="0 0 18 16" fill="none" xmlns="http://www.w3.org/2000/svg">
<path d="M9.07422 15.1772C9.07422 15.1772 1.26172 10.8022 1.26172 5.48971C1.26172 4.55056 1.5871 3.64042 2.18252 2.91413C2.77793 2.18785 3.60658 1.69029 4.5275 1.5061C5.44841 1.32192 6.40469 1.46249 7.23364 1.90391C8.0626 2.34532 8.71301 3.0603 9.07422 3.92721V3.92721C9.43543 3.0603 10.0858 2.34532 10.9148 1.90391C11.7437 1.46249 12.7 1.32192 13.6209 1.5061C14.5419 1.69029 15.3705 2.18785 15.9659 2.91413C16.5613 3.64042 16.8867 4.55056 16.8867 5.48971C16.8867 10.8022 9.07422 15.1772 9.07422 15.1772Z" stroke="#475569" stroke-linecap="round" stroke-linejoin="round"/>
</svg>
