<svg width="22" height="23" viewBox="0 0 22 23" fill="none" xmlns="http://www.w3.org/2000/svg">
<path d="M5.89893 21.3022H2.89893C2.36849 21.3022 1.85978 21.0915 1.48471 20.7164C1.10964 20.3414 0.898926 19.8326 0.898926 19.3022V12.3022C0.898926 11.7718 1.10964 11.2631 1.48471 10.888C1.85978 10.5129 2.36849 10.3022 2.89893 10.3022H5.89893M12.8989 8.30222V4.30222C12.8989 3.50657 12.5829 2.7435 12.0202 2.1809C11.4576 1.61829 10.6946 1.30222 9.89893 1.30222L5.89893 10.3022V21.3022H17.1789C17.6613 21.3077 18.1293 21.1386 18.4968 20.8262C18.8644 20.5138 19.1066 20.0791 19.1789 19.6022L20.5589 10.6022C20.6024 10.3156 20.5831 10.0229 20.5023 9.74447C20.4214 9.46604 20.281 9.20851 20.0908 8.98973C19.9005 8.77095 19.665 8.59615 19.4005 8.47743C19.136 8.35872 18.8488 8.29893 18.5589 8.30222H12.8989Z" stroke="#475569" stroke-width="1.5" stroke-linecap="round" stroke-linejoin="round"/>
</svg>
