<svg width="21" height="21" viewBox="0 0 21 21" fill="none" xmlns="http://www.w3.org/2000/svg">
<path d="M5.77319 12.8022C7.15391 12.8022 8.27319 11.6829 8.27319 10.3022C8.27319 8.9215 7.15391 7.80222 5.77319 7.80222C4.39248 7.80222 3.27319 8.9215 3.27319 10.3022C3.27319 11.6829 4.39248 12.8022 5.77319 12.8022Z" stroke="#475569" stroke-linecap="round" stroke-linejoin="round"/>
<path d="M14.5232 18.4272C15.9039 18.4272 17.0232 17.3079 17.0232 15.9272C17.0232 14.5465 15.9039 13.4272 14.5232 13.4272C13.1425 13.4272 12.0232 14.5465 12.0232 15.9272C12.0232 17.3079 13.1425 18.4272 14.5232 18.4272Z" stroke="#475569" stroke-linecap="round" stroke-linejoin="round"/>
<path d="M14.5232 7.17722C15.9039 7.17722 17.0232 6.05793 17.0232 4.67722C17.0232 3.2965 15.9039 2.17722 14.5232 2.17722C13.1425 2.17722 12.0232 3.2965 12.0232 4.67722C12.0232 6.05793 13.1425 7.17722 14.5232 7.17722Z" stroke="#475569" stroke-linecap="round" stroke-linejoin="round"/>
<path d="M12.4216 6.02878L7.87476 8.95066" stroke="#475569" stroke-linecap="round" stroke-linejoin="round"/>
<path d="M7.87476 11.6538L12.4216 14.5757" stroke="#475569" stroke-linecap="round" stroke-linejoin="round"/>
</svg>
